{
  "accessors": [
    {
      "bufferView": 2,
      "componentType": 5126,
      "count": 551,
      "max": [
        3.591597080230713,
        5.207067012786865,
        1.3733450174331665
      ],
      "min": [
        -12.01198959350586,
        -0.13285519182682037,
        -13.202279090881348
      ],
      "type": "VEC3"
    },
    {
      "bufferView": 2,
      "byteOffset": 6612,
      "componentType": 5126,
      "count": 551,
      "max": [
        1.0,
        1.0,
        1.0
      ],
      "min": [
        -1.0,
        -1.0,
        -1.0
      ],
      "type": "VEC3"
    },
    {
      "bufferView": 1,
      "componentType": 5126,
      "count": 551,
      "max": [
        3.9802639484405518,
        0.9960939884185791
      ],
      "min": [
        3.003906011581421,
        0.0039059999398887157
      ],
      "type": "VEC2"
    },
    {
      "bufferView": 0,
      "componentType": 5125,
      "count": 1365,
      "type": "SCALAR"
    },
    {
      "bufferView": 2,
      "byteOffset": 13224,
      "componentType": 5126,
      "count": 8574,
      "max": [
        -6.078829288482666,
        9.455366134643555,
        -0.3759479522705078
      ],
      "min": [
        -11.588460922241211,
        -0.36444854736328125,
        -5.5381693840026855
      ],
      "type": "VEC3"
    },
    {
      "bufferView": 2,
      "byteOffset": 116112,
      "componentType": 5126,
      "count": 8574,
      "max": [
        0.9992718696594238,
        0.9999852776527405,
        0.9998640418052673
      ],
      "min": [
        -0.9995782971382141,
        -0.9999948143959045,
        -0.9999802708625793
      ],
      "type": "VEC3"
    },
    {
      "bufferView": 3,
      "componentType": 5126,
      "count": 8574,
      "max": [
        0.9997704029083252,
        0.9998183250427246,
        0.9999825358390808,
        1.0
      ],
      "min": [
        -0.996904194355011,
        -0.9999995827674866,
        -0.9991253614425659,
        1.0
      ],
      "type": "VEC4"
    },
    {
      "bufferView": 1,
      "byteOffset": 4408,
      "componentType": 5126,
      "count": 8574,
      "max": [
        4.993292808532715,
        1.996093988418579
      ],
      "min": [
        4.003905773162842,
        1.003906011581421
      ],
      "type": "VEC2"
    },
    {
      "bufferView": 0,
      "byteOffset": 5460,
      "componentType": 5125,
      "count": 8574,
      "type": "SCALAR"
    },
    {
      "bufferView": 2,
      "byteOffset": 219000,
      "componentType": 5126,
      "count": 65532,
      "max": [
        3.4629440307617188,
        8.453887939453125,
        -0.030435016378760338
      ],
      "min": [
        -11.402009010314941,
        4.926558971405029,
        -13.245309829711914
      ],
      "type": "VEC3"
    },
    {
      "bufferView": 2,
      "byteOffset": 1005384,
      "componentType": 5126,
      "count": 65532,
      "max": [
        1.0,
        1.0,
        1.0
      ],
      "min": [
        -1.0,
        -1.0,
        -1.0
      ],
      "type": "VEC3"
    },
    {
      "bufferView": 1,
      "byteOffset": 73000,
      "componentType": 5126,
      "count": 65532,
      "max": [
        2.9923369884490967,
        1.996093988418579
      ],
      "min": [
        2.003906011581421,
        1.003906011581421
      ],
      "type": "VEC2"
    },
    {
      "bufferView": 0,
      "byteOffset": 39756,
      "componentType": 5125,
      "count": 67659,
      "type": "SCALAR"
    },
    {
      "bufferView": 2,
      "byteOffset": 1791768,
      "componentType": 5126,
      "count": 12384,
      "max": [
        3.162523031234741,
        6.626495838165283,
        -2.294018030166626
      ],
      "min": [
        -7.463527679443359,
        4.9261908531188965,
        -13.245309829711914
      ],
      "type": "VEC3"
    },
    {
      "bufferView": 2,
      "byteOffset": 1940376,
      "componentType": 5126,
      "count": 12384,
      "max": [
        0.9992393851280212,
        1.0,
        0.9995484948158264
      ],
      "min": [
        -0.9997297525405884,
        -1.0,
        -0.9995015263557434
      ],
      "type": "VEC3"
    },
    {
      "bufferView": 1,
      "byteOffset": 597256,
      "componentType": 5126,
      "count": 12384,
      "max": [
        2.9938180446624756,
        1.9960739612579346
      ],
      "min": [
        2.003906011581421,
        1.003906011581421
      ],
      "type": "VEC2"
    },
    {
      "bufferView": 0,
      "byteOffset": 310392,
      "componentType": 5125,
      "count": 12459,
      "type": "SCALAR"
    }
  ],
  "asset": {
    "extras": {
      "author": "DeadLink (https://sketchfab.com/d43dLink)",
      "license": "CC-BY-4.0 (http://creativecommons.org/licenses/by/4.0/)",
      "source": "https://sketchfab.com/3d-models/gaming-setup-8a75c64542c14be0ad3dcf75423eda0d",
      "title": "Gaming Setup"
    },
    "generator": "Sketchfab-15.49.0",
    "version": "2.0"
  },
  "bufferViews": [
    {
      "buffer": 0,
      "byteLength": 360228,
      "name": "floatBufferViews",
      "target": 34963
    },
    {
      "buffer": 0,
      "byteLength": 696328,
      "byteOffset": 360228,
      "byteStride": 8,
      "name": "floatBufferViews",
      "target": 34962
    },
    {
      "buffer": 0,
      "byteLength": 2088984,
      "byteOffset": 1056556,
      "byteStride": 12,
      "name": "floatBufferViews",
      "target": 34962
    },
    {
      "buffer": 0,
      "byteLength": 137184,
      "byteOffset": 3145540,
      "byteStride": 16,
      "name": "floatBufferViews",
      "target": 34962
    }
  ],
  "buffers": [
    {
      "byteLength": 3282724,
      "uri": "scene.bin"
    }
  ],
  "extensionsUsed": [
    "KHR_materials_emissive_strength"
  ],
  "images": [
    {
      "uri": "textures/Stoo1_baseColor.png"
    },
    {
      "uri": "textures/Stoo1_metallicRoughness.png"
    },
    {
      "uri": "textures/Stoo1_emissive.jpeg"
    },
    {
      "uri": "textures/material_baseColor.png"
    },
    {
      "uri": "textures/material_metallicRoughness.png"
    },
    {
      "uri": "textures/material_normal.png"
    },
    {
      "uri": "textures/material_2_baseColor.png"
    },
    {
      "uri": "textures/material_2_metallicRoughness.png"
    },
    {
      "uri": "textures/material_2_emissive.jpeg"
    }
  ],
  "materials": [
    {
      "doubleSided": true,
      "emissiveFactor": [
        1.0,
        1.0,
        1.0
      ],
      "emissiveTexture": {
        "index": 2
      },
      "extensions": {
        "KHR_materials_emissive_strength": {
          "emissiveStrength": 10.0
        }
      },
      "name": "Stoo1",
      "occlusionTexture": {
        "index": 1
      },
      "pbrMetallicRoughness": {
        "baseColorTexture": {
          "index": 0
        },
        "metallicRoughnessTexture": {
          "index": 1
        }
      }
    },
    {
      "doubleSided": true,
      "name": "material",
      "normalTexture": {
        "index": 5
      },
      "occlusionTexture": {
        "index": 4
      },
      "pbrMetallicRoughness": {
        "baseColorTexture": {
          "index": 3
        },
        "metallicRoughnessTexture": {
          "index": 4
        }
      }
    },
    {
      "doubleSided": true,
      "emissiveFactor": [
        1.0,
        1.0,
        1.0
      ],
      "emissiveTexture": {
        "index": 8
      },
      "extensions": {
        "KHR_materials_emissive_strength": {
          "emissiveStrength": 1.9352439931245502
        }
      },
      "name": "material_2",
      "occlusionTexture": {
        "index": 7
      },
      "pbrMetallicRoughness": {
        "baseColorTexture": {
          "index": 6
        },
        "metallicRoughnessTexture": {
          "index": 7
        }
      }
    }
  ],
  "meshes": [
    {
      "name": "Stoo1_Stoo1_0",
      "primitives": [
        {
          "attributes": {
            "NORMAL": 1,
            "POSITION": 0,
            "TEXCOORD_0": 2
          },
          "indices": 3,
          "material": 0,
          "mode": 4
        }
      ]
    },
    {
      "name": "sit_sit_0",
      "primitives": [
        {
          "attributes": {
            "NORMAL": 5,
            "POSITION": 4,
            "TANGENT": 6,
            "TEXCOORD_0": 7
          },
          "indices": 8,
          "material": 1,
          "mode": 4
        }
      ]
    },
    {
      "name": "pc_pc_0",
      "primitives": [
        {
          "attributes": {
            "NORMAL": 10,
            "POSITION": 9,
            "TEXCOORD_0": 11
          },
          "indices": 12,
          "material": 2,
          "mode": 4
        }
      ]
    },
    {
      "name": "pc_pc_0",
      "primitives": [
        {
          "attributes": {
            "NORMAL": 14,
            "POSITION": 13,
            "TEXCOORD_0": 15
          },
          "indices": 16,
          "material": 2,
          "mode": 4
        }
      ]
    }
  ],
  "nodes": [
    {
      "children": [
        1
      ],
      "matrix": [
        1.0,
        0.0,
        0.0,
        0.0,
        0.0,
        2.220446049250313e-16,
        -1.0,
        0.0,
        0.0,
        1.0,
        2.220446049250313e-16,
        0.0,
        0.0,
        0.0,
        0.0,
        1.0
      ],
      "name": "Sketchfab_model"
    },
    {
      "children": [
        2
      ],
      "matrix": [
        0.009999999776482582,
        0.0,
        0.0,
        0.0,
        0.0,
        0.0,
        0.009999999776482582,
        0.0,
        0.0,
        -0.009999999776482582,
        0.0,
        0.0,
        0.0,
        0.0,
        0.0,
        1.0
      ],
      "name": "2d798a9f9b2447059b539eeee8dc6945.fbx"
    },
    {
      "children": [
        3,
        5,
        7
      ],
      "name": "RootNode"
    },
    {
      "children": [
        4
      ],
      "name": "Stoo1"
    },
    {
      "mesh": 0,
      "name": "Stoo1_Stoo1_0"
    },
    {
      "children": [
        6
      ],
      "name": "sit"
    },
    {
      "mesh": 1,
      "name": "sit_sit_0"
    },
    {
      "children": [
        8,
        9
      ],
      "name": "pc"
    },
    {
      "mesh": 2,
      "name": "pc_pc_0"
    },
    {
      "mesh": 3,
      "name": "pc_pc_0"
    }
  ],
  "samplers": [
    {
      "magFilter": 9729,
      "minFilter": 9987,
      "wrapS": 10497,
      "wrapT": 10497
    }
  ],
  "scene": 0,
  "scenes": [
    {
      "name": "Sketchfab_Scene",
      "nodes": [
        0
      ]
    }
  ],
  "textures": [
    {
      "sampler": 0,
      "source": 0
    },
    {
      "sampler": 0,
      "source": 1
    },
    {
      "sampler": 0,
      "source": 2
    },
    {
      "sampler": 0,
      "source": 3
    },
    {
      "sampler": 0,
      "source": 4
    },
    {
      "sampler": 0,
      "source": 5
    },
    {
      "sampler": 0,
      "source": 6
    },
    {
      "sampler": 0,
      "source": 7
    },
    {
      "sampler": 0,
      "source": 8
    }
  ]
}
