<?xml version="1.0" encoding="UTF-8"?>
<svg version="1.1" xmlns="http://www.w3.org/2000/svg" width="732" height="712">
<path d="M0 0 C17.72053059 72.20207267 25.70098557 146.86054557 17 221 C16.7831958 222.86785156 16.7831958 222.86785156 16.56201172 224.7734375 C11.84719407 263.95393769 2.58050605 304.04953533 -14 340 C-83.71907431 339.00609406 -149.54910752 317.65555174 -212.0625 288.1875 C-212.79369049 287.84313904 -213.52488098 287.49877808 -214.27822876 287.14398193 C-225.01815983 282.06695677 -235.53994131 276.62944611 -246 271 C-244.79822428 267.39467283 -244.07867567 267.18148044 -240.85546875 265.390625 C-239.9648877 264.89071045 -239.07430664 264.3907959 -238.15673828 263.87573242 C-236.68696533 263.07099487 -236.68696533 263.07099487 -235.1875 262.25 C-233.66358643 261.40369019 -233.66358643 261.40369019 -232.10888672 260.5402832 C-228.74622466 258.68052521 -225.37438867 256.83838846 -222 255 C-220.81359953 254.35147253 -219.62723915 253.70287171 -218.44091797 253.05419922 C-210.33313101 248.62742711 -202.18840599 244.27623805 -194 240 C-193.08234863 239.51998535 -192.16469727 239.0399707 -191.21923828 238.54541016 C-188.88654257 237.33918524 -186.54246397 236.16201336 -184.1875 235 C-183.54312988 234.66766357 -182.89875977 234.33532715 -182.23486328 233.99291992 C-177.75702949 231.85388483 -174.77064706 231.74063456 -170 233 C-167.55258321 234.17658777 -165.27544778 235.38991684 -162.9375 236.75 C-134.83979101 252.23254097 -103.42598159 263.71914029 -72 270 C-70.80890625 270.24363281 -69.6178125 270.48726563 -68.390625 270.73828125 C-59.92743436 272.25546299 -51.56324012 272.19786691 -43 272 C-39.38135948 261.83821058 -35.8939607 251.6985454 -33.6875 241.125 C-33.46755371 240.07832153 -33.46755371 240.07832153 -33.24316406 239.01049805 C-32.78416409 236.67938803 -32.38434601 234.34462081 -32 232 C-31.73401001 230.43028442 -31.73401001 230.43028442 -31.46264648 228.82885742 C-29.79220417 217.89552624 -29.6425147 207.10242097 -29.6875 196.0625 C-29.68965515 195.11157471 -29.6918103 194.16064941 -29.69403076 193.1809082 C-29.79637026 165.02039194 -33.42613445 137.13202712 -43.1171875 110.52734375 C-44 108 -44 108 -44 106 C-76.89406614 111.89069018 -76.89406614 111.89069018 -109 121 C-109.82564453 121.28246582 -110.65128906 121.56493164 -111.50195312 121.85595703 C-145.46147028 133.71239742 -178.32026893 149.84131374 -209.12255859 168.28564453 C-211.93125672 169.95904333 -214.753366 171.60671401 -217.58203125 173.24609375 C-229.99851146 180.46035997 -242.06005087 188.12690265 -254.03710938 196.04638672 C-256.97082078 197.98076037 -259.91323488 199.90102418 -262.859375 201.81640625 C-286.5475358 217.22222069 -310.04523533 232.91996761 -333.46484375 248.73046875 C-334.41985275 249.37515106 -335.37486176 250.01983337 -336.35881042 250.68405151 C-340.97364596 253.80027571 -345.58667416 256.91913176 -350.19702148 260.04199219 C-364.03271562 269.4044378 -377.96764564 278.60372279 -392.1875 287.375 C-393.05858398 287.91261963 -393.92966797 288.45023926 -394.82714844 289.00415039 C-423.52392476 306.6485126 -452.90846797 322.87612428 -483 338 C-483.62604126 338.31473267 -484.25208252 338.62946533 -484.89709473 338.95373535 C-499.83438961 346.44767671 -514.95927015 353.40866207 -530.3125 360 C-531.39310699 360.46481781 -531.39310699 360.46481781 -532.49554443 360.93902588 C-546.41285357 366.90757688 -560.39468119 372.6320383 -575.0625 376.5 C-576.15119385 376.78842773 -577.2398877 377.07685547 -578.36157227 377.37402344 C-609.53098052 385.40894113 -640.84773514 389.27445955 -673 390 C-695.84778956 325.70130819 -707.27503154 256.45246538 -707.1875 188.25 C-707.18689575 187.36603546 -707.1862915 186.48207092 -707.18566895 185.57131958 C-707.07512295 125.37430544 -698.89634569 60.94087459 -673 6 C-603.61912567 2.96388394 -533.59861278 29.5307761 -472 59 C-471.38020264 59.29646423 -470.76040527 59.59292847 -470.12182617 59.89837646 C-454.96934836 67.16570416 -440.2180876 75.03239166 -425.67675781 83.45214844 C-423.06889579 84.96016059 -420.45365458 86.45448703 -417.8359375 87.9453125 C-408.36852223 93.35513122 -399.09800837 98.98908093 -390 105 C-392.94095535 108.16624412 -395.94666918 110.37950552 -399.63671875 112.6171875 C-400.75957275 113.29998779 -401.88242676 113.98278809 -403.03930664 114.6862793 C-404.25510247 115.41630043 -405.47117345 116.14586347 -406.6875 116.875 C-407.30382294 117.24694489 -407.92014587 117.61888977 -408.55514526 118.00210571 C-420.29392775 125.08612474 -432.17827542 131.90326297 -444.21923828 138.46240234 C-446.15557873 139.53308471 -448.07487994 140.63492417 -449.97998047 141.76025391 C-450.94436035 142.32019043 -451.90874023 142.88012695 -452.90234375 143.45703125 C-453.76206787 143.96854736 -454.62179199 144.48006348 -455.50756836 145.00708008 C-458.53484125 146.21306684 -459.93440592 146.00676683 -463 145 C-465.55216813 143.47857099 -467.9864733 141.9194103 -470.4375 140.25 C-502.16829484 119.22570216 -536.20307463 101.02086993 -572 88 C-572.9811377 87.64276855 -573.96227539 87.28553711 -574.97314453 86.91748047 C-597.63140066 78.7770326 -620.07967494 74.42985718 -644 72 C-644.18248291 72.61601074 -644.36496582 73.23202148 -644.55297852 73.86669922 C-645.81271389 78.09589716 -647.09035686 82.31436779 -648.46484375 86.5078125 C-663.54522007 133.28775537 -659.83210774 183.41880536 -646 230 C-645.70609375 231.01819824 -645.4121875 232.03639648 -645.109375 233.08544922 C-640.22487909 249.99749887 -634.89621503 267.20756994 -627 283 C-620.41410737 281.8052242 -614.10098899 280.24601802 -607.7421875 278.1640625 C-606.88899429 277.88895844 -606.03580109 277.61385437 -605.15675354 277.33041382 C-602.39370625 276.43597889 -599.63405841 275.53165976 -596.875 274.625 C-595.92215118 274.31320801 -594.96930237 274.00141602 -593.98757935 273.68017578 C-576.46487562 267.93599942 -559.14346222 261.79148937 -542 255 C-540.9944104 254.60228394 -540.9944104 254.60228394 -539.96850586 254.1965332 C-509.30419455 242.04447405 -479.4486152 228.3471436 -449.9375 213.625 C-448.56262421 212.94038696 -448.56262421 212.94038696 -447.15997314 212.24194336 C-434.92492765 206.13722367 -422.89355218 199.74510688 -411 193 C-409.86006592 192.35708008 -408.72013184 191.71416016 -407.5456543 191.05175781 C-375.62691241 172.97660338 -344.75067162 153.07042655 -314.8125 131.875 C-294.30657444 117.35814965 -273.34586997 103.37771581 -251.70849609 90.60351562 C-248.95860974 88.97549565 -246.22321753 87.32486376 -243.48828125 85.671875 C-226.71889326 75.62206382 -209.38189502 66.72712282 -191.91607666 57.96289062 C-190.20437113 57.10270312 -188.49531252 56.23725309 -186.78662109 55.37109375 C-168.37121995 46.06673688 -149.19136901 38.52959991 -130 31 C-128.38496582 30.36336426 -128.38496582 30.36336426 -126.73730469 29.71386719 C-88.11118984 14.62617085 -41.78528997 0 0 0 Z " fill="#EE51F2" transform="translate(711,161)"/>
</svg>
